<svg width="200" height="206" viewBox="0 0 200 206" fill="none" xmlns="http://www.w3.org/2000/svg">
<g clip-path="url(#clip0_1_2)">
<path d="M176 6H24C10.7452 6 0 16.7452 0 30V182C0 195.255 10.7452 206 24 206H176C189.255 206 200 195.255 200 182V30C200 16.7452 189.255 6 176 6Z" fill="#9A3412"/>
<path d="M176 2H24C11.8497 2 2 11.8497 2 24V176C2 188.15 11.8497 198 24 198H176C188.15 198 198 188.15 198 176V24C198 11.8497 188.15 2 176 2Z" fill="#EA580C" stroke="#9A3412" stroke-width="4"/>
<path d="M32 2H169V73C169 75.7614 166.761 78 164 78H37C34.2386 78 32 75.7614 32 73V2Z" fill="#FBBF24" stroke="#9A3412" stroke-width="3"/>
<path d="M153.125 11H136.875C134.183 11 132 13.0501 132 15.5789V64.4211C132 66.9499 134.183 69 136.875 69H153.125C155.817 69 158 66.9499 158 64.4211V15.5789C158 13.0501 155.817 11 153.125 11Z" fill="#9A3412"/>
<path d="M168 97.5H32C28.4101 97.5 25.5 100.41 25.5 104V172C25.5 175.59 28.4101 178.5 32 178.5H168C171.59 178.5 174.5 175.59 174.5 172V104C174.5 100.41 171.59 97.5 168 97.5Z" fill="#FFFBEB" stroke="#9A3412" stroke-width="3"/>
<path d="M65.7 156C63.9667 156 62.5333 155.433 61.4 154.3C60.3 153.167 59.75 151.75 59.75 150.05V121H66.8V148.6C66.8 149 66.9333 149.333 67.2 149.6C67.5 149.867 67.85 150 68.25 150H81.95V156H65.7ZM96.3805 156V123.95H103.48V156H96.3805ZM86.6805 127V121H113.28V127H86.6805ZM118.311 156V121H128.811C131.744 121 134.278 121.683 136.411 123.05C138.544 124.417 140.211 126.383 141.411 128.95C142.611 131.517 143.211 134.6 143.211 138.2V138.7C143.211 142.3 142.611 145.4 141.411 148C140.211 150.567 138.544 152.55 136.411 153.95C134.278 155.317 131.744 156 128.811 156H118.311ZM125.361 152.35L122.461 149.85H128.561C130.161 149.85 131.511 149.433 132.611 148.6C133.711 147.767 134.544 146.533 135.111 144.9C135.678 143.233 135.961 141.167 135.961 138.7V138.2C135.961 135.767 135.678 133.733 135.111 132.1C134.544 130.467 133.711 129.233 132.611 128.4C131.511 127.567 130.161 127.15 128.561 127.15H122.461L125.361 124.65V152.35Z" fill="#C2410C"/>
</g>
<defs>
<clipPath id="clip0_1_2">
<rect width="200" height="206" fill="white"/>
</clipPath>
</defs>
</svg>
