<svg width="85" height="96" fill="none" xmlns="http://www.w3.org/2000/svg"><path d="M84.99 50.63l-5-.22a14.387 14.387 0 01-4.58-.89c.18-1.84 2.67-7.64 5.09-12.35l1.65-3.22-3.53.84c-.06 0-6.39 1.52-9.33 1.52h-.5a37.523 37.523 0 01-1.85-7.16l-.5-2.79-9.65 7.86 2.59-20.38-3 2.14c-2 1.38-5.42 3.37-7 3.57-1.2-1.22-3.43-7.52-4.84-12.94L42.93.41l-1.62 6.2c-1.41 5.43-3.64 11.73-4.84 12.94-1.38-.16-4.61-1.93-7-3.57l-3.09-2.14L29 34.2l-9.62-7.82-.5 2.79a37.936 37.936 0 01-1.84 7.16h-.51c-2.94 0-9.27-1.5-9.33-1.52l-3.53-.84 1.66 3.22c2.42 4.71 4.9 10.51 5.09 12.35a13.89 13.89 0 01-4.59.89l-5 .22 4.1 2.82c8.43 5.8 17.63 12.49 19.57 14.46a18.049 18.049 0 01-2.57 3.45L18.1 75.5l23.2-5.8c.73 12.52 7.87 25.61 17.89 25.61v-3.34c-7.85 0-13.84-11.33-14.55-22.24l23 5.77-3.77-4.12a18.053 18.053 0 01-2.57-3.45c2-2 11.15-8.66 19.58-14.46l4.11-2.84zM57.85 67.48a4.69 4.69 0 00.66 2.26l-12.87-3.22L58.1 55.78l-1.31-1.51-12.88 11.11V37.46h-2v27.92L28.99 54.27l-1.3 1.52 12.48 10.74-12.87 3.21a4.69 4.69 0 00.66-2.26c0-.87-.1-2.16-17.68-14.39a7.071 7.071 0 002.63-1.25c.76-.65 2.3-1.94-3.08-13.07 2.198.48 4.433.775 6.68.88a3.81 3.81 0 002.8-.85c.93-1 1.73-3.79 2.29-6.34l11.79 9.6-2.76-21.41c2 1.16 4.59 2.35 6.26 2.24.78-.05 2.93-.18 6-9.82 3.09 9.64 5.23 9.77 6 9.82h.25c1.67 0 4.07-1.14 6-2.25l-2.75 21.41 11.78-9.6c.56 2.55 1.36 5.36 2.3 6.34a3.79 3.79 0 002.79.85c2.247-.105 4.482-.4 6.68-.88-5.37 11.13-3.84 12.43-3.07 13.08a7.21 7.21 0 002.63 1.24c-17.55 12.24-17.61 13.53-17.65 14.4z" fill="#fff"/></svg>