<svg xmlns="http://www.w3.org/2000/svg" style="width:0;height:0;display:none"><defs><symbol viewBox="0 0 448 512" id="instagram"><path d="M224.1 141c-63.6 0-114.9 51.3-114.9 114.9s51.3 114.9 114.9 114.9S339 319.5 339 255.9 287.7 141 224.1 141zm0 189.6c-41.1 0-74.7-33.5-74.7-74.7s33.5-74.7 74.7-74.7 74.7 33.5 74.7 74.7-33.6 74.7-74.7 74.7zm146.4-194.3c0 14.9-12 26.8-26.8 26.8-14.9 0-26.8-12-26.8-26.8s12-26.8 26.8-26.8 26.8 12 26.8 26.8zm76.1 27.2c-1.7-35.9-9.9-67.7-36.2-93.9-26.2-26.2-58-34.4-93.9-36.2-37-2.1-147.9-2.1-184.9 0-35.8 1.7-67.6 9.9-93.9 36.1s-34.4 58-36.2 93.9c-2.1 37-2.1 147.9 0 184.9 1.7 35.9 9.9 67.7 36.2 93.9s58 34.4 93.9 36.2c37 2.1 147.9 2.1 184.9 0 35.9-1.7 67.7-9.9 93.9-36.2 26.2-26.2 34.4-58 36.2-93.9 2.1-37 2.1-147.8 0-184.8zM398.8 388c-7.8 19.6-22.9 34.7-42.6 42.6-29.5 11.7-99.5 9-132.1 9s-102.7 2.6-132.1-9c-19.6-7.8-34.7-22.9-42.6-42.6-11.7-29.5-9-99.5-9-132.1s-2.6-102.7 9-132.1c7.8-19.6 22.9-34.7 42.6-42.6 29.5-11.7 99.5-9 132.1-9s102.7-2.6 132.1 9c19.6 7.8 34.7 22.9 42.6 42.6 11.7 29.5 9 99.5 9 132.1s2.7 102.7-9 132.1z"/></symbol><symbol viewBox="0 0 448 512" id="whatsapp"><path d="M380.9 97.1C339 55.1 283.2 32 223.9 32c-122.4 0-222 99.6-222 222 0 39.1 10.2 77.3 29.6 111L0 480l117.7-30.9c32.4 17.7 68.9 27 106.1 27h.1c122.3 0 224.1-99.6 224.1-222 0-59.3-25.2-115-67.1-157zm-157 341.6c-33.2 0-65.7-8.9-94-25.7l-6.7-4-69.8 18.3L72 359.2l-4.4-7c-18.5-29.4-28.2-63.3-28.2-98.2 0-101.7 82.8-184.5 184.6-184.5 49.3 0 95.6 19.2 130.4 54.1 34.8 34.9 56.2 81.2 56.1 130.5 0 101.8-84.9 184.6-186.6 184.6zm101.2-138.2c-5.5-2.8-32.8-16.2-37.9-18-5.1-1.9-8.8-2.8-12.5 2.8-3.7 5.6-14.3 18-17.6 21.8-3.2 3.7-6.5 4.2-12 1.4-32.6-16.3-54-29.1-75.5-66-5.7-9.8 5.7-9.1 16.3-30.3 1.8-3.7 .9-6.9-.5-9.7-1.4-2.8-12.5-30.1-17.1-41.2-4.5-10.8-9.1-9.3-12.5-9.5-3.2-.2-6.9-.2-10.6-.2-3.7 0-9.7 1.4-14.8 6.9-5.1 5.6-19.4 19-19.4 46.3 0 27.3 19.9 53.7 22.6 57.4 2.8 3.7 39.1 59.7 94.8 83.8 35.2 15.2 49 16.5 66.6 13.9 10.7-1.6 32.8-13.4 37.4-26.4 4.6-13 4.6-24.1 3.2-26.4-1.3-2.5-5-3.9-10.5-6.6z"/></symbol><symbol viewBox="0 0 512 512" id="image"><path d="M448 80c8.8 0 16 7.2 16 16V415.8l-5-6.5-136-176c-4.5-5.9-11.6-9.3-19-9.3s-14.4 3.4-19 9.3L202 340.7l-30.5-42.7C167 291.7 159.8 288 152 288s-15 3.7-19.5 10.1l-80 112L48 416.3l0-.3V96c0-8.8 7.2-16 16-16H448zM64 32C28.7 32 0 60.7 0 96V416c0 35.3 28.7 64 64 64H448c35.3 0 64-28.7 64-64V96c0-35.3-28.7-64-64-64H64zm80 192a48 48 0 1 0 0-96 48 48 0 1 0 0 96z"/></symbol><symbol viewBox="0 0 384 512" id="pdf"><path d="M369.9 97.9L286 14C277 5 264.8-.1 252.1-.1H48C21.5 0 0 21.5 0 48v416c0 26.5 21.5 48 48 48h288c26.5 0 48-21.5 48-48V131.9c0-12.7-5.1-25-14.1-34zM332.1 128H256V51.9l76.1 76.1zM48 464V48h160v104c0 13.3 10.7 24 24 24h104v288H48zm250.2-143.7c-12.2-12-47-8.7-64.4-6.5-17.2-10.5-28.7-25-36.8-46.3 3.9-16.1 10.1-40.6 5.4-56-4.2-26.2-37.8-23.6-42.6-5.9-4.4 16.1-.4 38.5 7 67.1-10 23.9-24.9 56-35.4 74.4-20 10.3-47 26.2-51 46.2-3.3 15.8 26 55.2 76.1-31.2 22.4-7.4 46.8-16.5 68.4-20.1 18.9 10.2 41 17 55.8 17 25.5 0 28-28.2 17.5-38.7zm-198.1 77.8c5.1-13.7 24.5-29.5 30.4-35-19 30.3-30.4 35.7-30.4 35zm81.6-190.6c7.4 0 6.7 32.1 1.8 40.8-4.4-13.9-4.3-40.8-1.8-40.8zm-24.4 136.6c9.7-16.9 18-37 24.7-54.7 8.3 15.1 18.9 27.2 30.1 35.5-20.8 4.3-38.9 13.1-54.8 19.2zm131.6-5s-5 6-37.3-7.8c35.1-2.6 40.9 5.4 37.3 7.8z"/></symbol><symbol viewBox="0 0 448 512" id="calculator"><path d="M400 0H48C22.4 0 0 22.4 0 48v416c0 25.6 22.4 48 48 48h352c25.6 0 48-22.4 48-48V48c0-25.6-22.4-48-48-48zM128 435.2c0 6.4-6.4 12.8-12.8 12.8H76.8c-6.4 0-12.8-6.4-12.8-12.8v-38.4c0-6.4 6.4-12.8 12.8-12.8h38.4c6.4 0 12.8 6.4 12.8 12.8v38.4zm0-128c0 6.4-6.4 12.8-12.8 12.8H76.8c-6.4 0-12.8-6.4-12.8-12.8v-38.4c0-6.4 6.4-12.8 12.8-12.8h38.4c6.4 0 12.8 6.4 12.8 12.8v38.4zm128 128c0 6.4-6.4 12.8-12.8 12.8h-38.4c-6.4 0-12.8-6.4-12.8-12.8v-38.4c0-6.4 6.4-12.8 12.8-12.8h38.4c6.4 0 12.8 6.4 12.8 12.8v38.4zm0-128c0 6.4-6.4 12.8-12.8 12.8h-38.4c-6.4 0-12.8-6.4-12.8-12.8v-38.4c0-6.4 6.4-12.8 12.8-12.8h38.4c6.4 0 12.8 6.4 12.8 12.8v38.4zm128 128c0 6.4-6.4 12.8-12.8 12.8h-38.4c-6.4 0-12.8-6.4-12.8-12.8V268.8c0-6.4 6.4-12.8 12.8-12.8h38.4c6.4 0 12.8 6.4 12.8 12.8v166.4zm0-256c0 6.4-6.4 12.8-12.8 12.8H76.8c-6.4 0-12.8-6.4-12.8-12.8V76.8C64 70.4 70.4 64 76.8 64h294.4c6.4 0 12.8 6.4 12.8 12.8v102.4z"/></symbol><symbol viewBox="0 0 384 512" id="document"><path d="M288 248v28c0 6.6-5.4 12-12 12H108c-6.6 0-12-5.4-12-12v-28c0-6.6 5.4-12 12-12h168c6.6 0 12 5.4 12 12zm-12 72H108c-6.6 0-12 5.4-12 12v28c0 6.6 5.4 12 12 12h168c6.6 0 12-5.4 12-12v-28c0-6.6-5.4-12-12-12zm108-188.1V464c0 26.5-21.5 48-48 48H48c-26.5 0-48-21.5-48-48V48C0 21.5 21.5 0 48 0h204.1C264.8 0 277 5.1 286 14.1L369.9 98c9 8.9 14.1 21.2 14.1 33.9zm-128-80V128h76.1L256 51.9zM336 464V176H232c-13.3 0-24-10.7-24-24V48H48v416h288z"/></symbol><symbol viewBox="0 0 640 512" id="door"><path d="M624 464H512V32c0-17.67-14.33-32-32-32H160c-17.67 0-32 14.33-32 32v432H16c-8.84 0-16 7.16-16 16v16c0 8.84 7.16 16 16 16h608c8.84 0 16-7.16 16-16v-16c0-8.84-7.16-16-16-16zm-160 0H176V48h288v416zm-64-176c17.67 0 32-14.33 32-32s-14.33-32-32-32-32 14.33-32 32 14.33 32 32 32z"/></symbol><symbol viewBox="0 0 512 512" id="car"><path d="M135.2 117.4L109.1 192H402.9l-26.1-74.6C372.3 104.6 360.2 96 346.6 96H165.4c-13.6 0-25.7 8.6-30.2 21.4zM39.6 196.8L74.8 96.3C88.3 57.8 124.6 32 165.4 32H346.6c40.8 0 77.1 25.8 90.6 64.3l35.2 100.5c23.2 9.6 39.6 32.5 39.6 59.2V400v48c0 17.7-14.3 32-32 32H448c-17.7 0-32-14.3-32-32V400H96v48c0 17.7-14.3 32-32 32H32c-17.7 0-32-14.3-32-32V400 256c0-26.7 16.4-49.6 39.6-59.2zM128 288a32 32 0 1 0 -64 0 32 32 0 1 0 64 0zm288 32a32 32 0 1 0 0-64 32 32 0 1 0 0 64z"/></symbol><symbol viewBox="0 0 512 512" id="university"><path d="M496 128v16a8 8 0 0 1 -8 8h-24v12c0 6.6-5.4 12-12 12H60c-6.6 0-12-5.4-12-12v-12H24a8 8 0 0 1 -8-8v-16a8 8 0 0 1 4.9-7.4l232-88a8 8 0 0 1 6.1 0l232 88A8 8 0 0 1 496 128zm-24 304H40c-13.3 0-24 10.7-24 24v16a8 8 0 0 0 8 8h464a8 8 0 0 0 8-8v-16c0-13.3-10.7-24-24-24zM96 192v192H60c-6.6 0-12 5.4-12 12v20h416v-20c0-6.6-5.4-12-12-12h-36V192h-64v192h-64V192h-64v192h-64V192H96z"/></symbol><symbol viewBox="0 0 448 512" id="double-left"><path d="M223.7 239l136-136c9.4-9.4 24.6-9.4 33.9 0l22.6 22.6c9.4 9.4 9.4 24.6 0 33.9L319.9 256l96.4 96.4c9.4 9.4 9.4 24.6 0 33.9L393.7 409c-9.4 9.4-24.6 9.4-33.9 0l-136-136c-9.5-9.4-9.5-24.6-.1-34zm-192 34l136 136c9.4 9.4 24.6 9.4 33.9 0l22.6-22.6c9.4-9.4 9.4-24.6 0-33.9L127.9 256l96.4-96.4c9.4-9.4 9.4-24.6 0-33.9L201.7 103c-9.4-9.4-24.6-9.4-33.9 0l-136 136c-9.5 9.4-9.5 24.6-.1 34z"/></symbol><symbol viewBox="0 0 448 512" id="lock"><path d="M224 412c-15.5 0-28-12.5-28-28v-64c0-15.5 12.5-28 28-28s28 12.5 28 28v64c0 15.5-12.5 28-28 28zm224-172v224c0 26.5-21.5 48-48 48H48c-26.5 0-48-21.5-48-48V240c0-26.5 21.5-48 48-48h32v-48C80 64.5 144.8-.2 224.4 0 304 .2 368 65.8 368 145.4V192h32c26.5 0 48 21.5 48 48zm-320-48h192v-48c0-52.9-43.1-96-96-96s-96 43.1-96 96v48zm272 48H48v224h352V240z"/></symbol><symbol viewBox="0 0 512 512" id="moon"><path d="M283.2 512c79 0 151.1-35.9 198.9-94.8 7.1-8.7-.6-21.4-11.6-19.4-124.2 23.7-238.3-71.6-238.3-197 0-72.2 38.7-138.6 101.5-174.4 9.7-5.5 7.3-20.2-3.8-22.2A258.2 258.2 0 0 0 283.2 0c-141.3 0-256 114.5-256 256 0 141.3 114.5 256 256 256z"/></symbol><symbol viewBox="0 0 512 512" id="flower"><path d="M461.55 256C492.22 229.19 512 190.23 512 146.29A146.28 146.28 0 0 0 365.71 0C321.77 0 282.81 19.78 256 50.45 229.19 19.78 190.23 0 146.29 0A146.28 146.28 0 0 0 0 146.29c0 43.94 19.78 82.9 50.45 109.71C19.78 282.81 0 321.77 0 365.71A146.29 146.29 0 0 0 146.29 512c43.94 0 82.9-19.78 109.71-50.45C282.81 492.22 321.77 512 365.71 512A146.29 146.29 0 0 0 512 365.71c0-43.94-19.78-82.9-50.45-109.71zm-95.84 208c-28.25 0-54.38-12.09-73.57-34L256 388.62 219.86 430c-19.19 22-45.32 34-73.57 34A98.4 98.4 0 0 1 48 365.71c0-28.25 12.09-54.38 34-73.57L123.38 256 82 219.86c-22-19.19-34-45.32-34-73.57A98.4 98.4 0 0 1 146.29 48c28.25 0 54.38 12.09 73.57 34L256 123.38 292.14 82c19.19-22 45.32-34 73.57-34A98.4 98.4 0 0 1 464 146.29c0 28.25-12.09 54.38-34 73.57L388.62 256 430 292.14c22 19.19 34 45.32 34 73.57A98.4 98.4 0 0 1 365.71 464zM256 176a80 80 0 1 0 80 80 80 80 0 0 0-80-80z"/></symbol><symbol id="megasena"><path d="M12.074 4.284c0-2.033-1.71-3.741-3.741-3.741-2.035 0-3.743 1.708-3.743 3.741v.407h-.405C2.15 4.691.443 6.399.443 8.514c0 2.033 1.707 3.741 3.742 3.741h7.889v-7.97Z" fill="currentColor"/><path d="M12.074 21.282c0 2.035-1.71 3.741-3.741 3.741-2.035 0-3.743-1.706-3.743-3.74v-.408h-.405c-2.035 0-3.742-1.708-3.742-3.74 0-2.034 1.707-3.74 3.742-3.74h7.889v7.887ZM13.294 4.284a3.731 3.731 0 0 1 3.74-3.741c2.034 0 3.742 1.708 3.742 3.741v.407h.406c2.034 0 3.74 1.708 3.74 3.823 0 2.033-1.707 3.741-3.74 3.741h-7.888v-7.97Z" fill="currentColor" fill-opacity=".6"/><path d="M13.294 21.282a3.73 3.73 0 0 0 3.74 3.741c2.034 0 3.742-1.706 3.742-3.74v-.408h.406c2.034 0 3.74-1.708 3.74-3.74 0-2.034-1.707-3.74-3.74-3.74h-7.888v7.887Z" fill="currentColor"/></symbol></defs></svg>